<?xml version="1.0" encoding="windows-1252"?>
<!DOCTYPE svg PUBLIC "-//W3C//DTD SVG 1.1//EN" "http://www.w3.org/Graphics/SVG/1.1/DTD/svg11.dtd">
<svg xmlns="http://www.w3.org/2000/svg" xmlns:xlink="http://www.w3.org/1999/xlink" version="1.1" viewBox="0 0 512 512" enable-background="new 0 0 512 512" width="512px" height="512px">
  <g>
    <path d="m352,328c26.469,0 48-21.531 48-48 0-26.469-21.531-48-48-48-26.469,0-48,21.531-48,48 0,26.469 21.531,48 48,48z" fill="#0280d4"/>
    <path d="m480,8h-448c-17.673,0-32,14.326-32,32v288c0,17.6 14.4,32 32,32h240v128c0,6.063 3.422,11.602 8.844,14.313 5.422,2.703 11.898,2.109 16.758-1.516l54.398-40.797 54.398,40.797c2.828,2.117 6.203,3.203 9.602,3.203 2.438,0 4.891-0.555 7.156-1.688 5.422-2.711 8.844-8.25 8.844-14.313v-127.999h48c17.6,0 32-14.4 32-32v-288c0-17.601-14.4-32-32-32zm-178.773,333.078c-1.578-4.898-5.422-8.734-10.32-10.313l-17.219-5.555 3.789-17.703c1.078-5.023-0.32-10.266-3.773-14.078l-12.134-13.429 12.133-13.43c3.453-3.813 4.852-9.055 3.773-14.078l-3.789-17.703 17.219-5.555c4.898-1.578 8.742-5.414 10.32-10.313l5.563-17.242 17.695,3.805c5.031,1.102 10.266-0.328 14.094-3.773l13.422-12.141 13.422,12.141c3.82,3.445 9.031,4.883 14.094,3.773l17.695-3.805 5.563,17.242c1.578,4.898 5.422,8.734 10.32,10.313l17.219,5.555-3.789,17.703c-1.078,5.023 0.32,10.266 3.773,14.078l12.133,13.43-12.133,13.43c-3.453,3.813-4.852,9.055-3.773,14.078l3.789,17.703-17.219,5.555c-4.898,1.578-8.742,5.414-10.32,10.313l-5.555,17.234-17.695-3.813c-5.008-1.094-10.281,0.313-14.102,3.773l-13.422,12.149-13.422-12.148c-2.969-2.688-6.805-4.133-10.734-4.133-1.125,0-2.25,0.117-3.367,0.359l-17.695,3.813-5.555-17.235zm-221.227-269.078c0.014,0 0.025,0.008 0.039,0.008h319.922c0.014,0 0.025-0.008 0.039-0.008 8.844,0 16,7.172 16,16 0,8.844-7.156,16-16,16v0.008h-320v-0.008c-8.828,0-16-7.156-16-16 0-8.828 7.172-16 16-16zm0,80h160c8.844,0 16,7.164 16,16s-7.156,16-16,16h-160c-8.828,0-16-7.164-16-16s7.172-16 16-16zm96,112h-96c-8.828,0-16-7.164-16-16s7.172-16 16-16h96c8.844,0 16,7.164 16,16s-7.156,16-16,16z" fill="#0280d4"/>
  </g>
</svg>