<?xml version="1.0" encoding="utf-8"?>
<!-- Generator: Adobe Illustrator 16.0.0, SVG Export Plug-In . SVG Version: 6.00 Build 0)  -->
<!DOCTYPE svg PUBLIC "-//W3C//DTD SVG 1.1//EN" "http://www.w3.org/Graphics/SVG/1.1/DTD/svg11.dtd">
<svg version="1.1" xmlns="http://www.w3.org/2000/svg" xmlns:xlink="http://www.w3.org/1999/xlink" x="0px" y="0px" width="100px"
	 height="100px" viewBox="0 0 100 100" enable-background="new 0 0 100 100" xml:space="preserve">
<g id="Go_to_Courses" display="none">
	<path display="inline" fill="#AAAAAA" d="M14.676,8.436h77.163V5.56H13.912c-1.593,0-2.814,0.853-3.37,1.85
		c-3.493,6.261-3.487,15.938,0,22.186c0.556,1,1.771,1.854,3.37,1.854h77.927v-2.877H14.676c-0.917,0-1.419-0.093-1.778-0.83
		c-2.802-5.773-2.802-12.703,0-18.481C13.256,8.525,13.753,8.436,14.676,8.436"/>
	<path display="inline" fill="#AAAAAA" d="M9.431,35.885h77.163v-2.876H8.667c-1.592,0-2.889,0.813-3.37,1.85
		c-3.491,7.497-3.488,20.454,0,27.942c0.481,1.036,1.772,1.85,3.37,1.85h77.926v-2.876H9.433c-0.918,0-1.473-0.063-1.779-0.829
		c-2.802-7.008-2.802-17.218,0-24.233C7.96,35.949,8.511,35.885,9.431,35.885"/>
	<path display="inline" fill="#AAAAAA" d="M19.887,69.086h77.197V66.21H19.121c-1.593,0-2.888,0.813-3.371,1.849
		c-1.901,4.083-2.581,8.31-2.581,12.533c0,4.225,0.679,8.453,2.581,12.531c0.482,1.038,1.773,1.854,3.371,1.854h77.963v-2.876
		H19.887c-0.919,0-1.475-0.067-1.78-0.831c-1.431-3.57-2.127-7.103-2.127-10.678c0-3.579,0.696-7.104,2.127-10.677
		C18.413,69.15,18.962,69.086,19.887,69.086"/>
	<path display="inline" fill="#AAAAAA" d="M14.996,25.697c-2.478-3.749-2.343-10.634,0-14.385h74.221
		c-2.515,3.75-2.716,10.648,0,14.385H14.996z M94.46,71.964H20.24c-2.343,4.986-2.476,12.274,0,17.259h74.22
		C90.866,84.672,91.063,76.527,94.46,71.964 M83.972,38.762H9.748c-2.341,4.987-2.474,15.153,0,20.137h74.224
		C80.375,54.351,80.569,43.326,83.972,38.762"/>
</g>
<g id="Certificate" display="none">
	<path display="inline" fill="#AAAAAA" d="M10.11,44.9c-6.012,5.633-6.012,14.763,0,20.393c6.017,5.632,15.77,5.632,21.782,0.005
		c6.007-5.635,6.007-14.765,0-20.395C25.88,39.271,16.119,39.271,10.11,44.9"/>
	<path display="inline" fill="#AAAAAA" d="M9.573,70.143v22.93l11.47-10.743l11.473,10.743V70.079
		c-3.334,2.257-7.321,3.491-11.51,3.491C16.842,73.57,12.891,72.363,9.573,70.143 M77.566,70.674H45.196
		c-1.397,0-2.524,1.061-2.524,2.374c0,1.307,1.127,2.359,2.524,2.359h32.371c1.401,0,2.537-1.053,2.537-2.359
		C80.104,71.734,78.968,70.674,77.566,70.674 M77.566,60.852H45.196c-1.397,0-2.524,1.063-2.524,2.372
		c0,1.304,1.127,2.368,2.524,2.368h32.371c1.401,0,2.537-1.064,2.537-2.368C80.104,61.914,78.968,60.852,77.566,60.852
		 M77.566,51.032H45.196c-1.397,0-2.524,1.059-2.524,2.37c0,1.307,1.127,2.362,2.524,2.362h32.371c1.401,0,2.537-1.056,2.537-2.362
		C80.104,52.091,78.968,51.032,77.566,51.032 M93.515,34.184L63.106,5.831c-0.562-0.537-1.334-0.834-2.15-0.834H28.062
		c-7.362,0-13.349,5.605-13.349,12.502v20.092c1.943-0.607,3.997-0.942,6.099-0.962l0-19.13c0-3.754,3.252-6.793,7.249-6.793h29
		v16.147c0,6.906,5.979,12.515,13.345,12.515h17.904v43.125c0,3.75-3.251,6.797-7.264,6.797H36.852v5.708
		c12.742,0,44.193,0.005,44.193,0.005v-0.009c0,0,0,0.009,0.002,0.009c7.364,0,13.352-5.615,13.352-12.51V36.204
		C94.398,35.436,94.085,34.711,93.515,34.184 M70.406,33.66c-4.007,0-7.261-3.049-7.261-6.806V13.92L84.309,33.66H70.406z
		 M31.859,22.909H46.72c1.394,0,2.522-1.053,2.522-2.362c0-1.311-1.128-2.371-2.522-2.371H31.859c-1.395,0-2.523,1.06-2.523,2.371
		C29.335,21.856,30.464,22.909,31.859,22.909 M31.859,32.727H46.72c1.394,0,2.522-1.057,2.522-2.362c0-1.31-1.128-2.369-2.522-2.369
		H31.859c-1.395,0-2.523,1.059-2.523,2.369C29.335,31.67,30.464,32.727,31.859,32.727"/>
</g>
<g id="Review" display="none">
	<path display="inline" fill="#AAAAAA" d="M91.468,36.55h-79.09c-0.953,0-1.731,0.776-1.731,1.731c0,0.953,0.778,1.729,1.731,1.729
		h79.09c0.957,0,1.732-0.776,1.732-1.729C93.2,37.326,92.425,36.55,91.468,36.55 M46.623,59.368h6.735
		c3.915-0.453,7.47-1.681,10.282-3.46H36.345C39.16,57.688,42.713,58.915,46.623,59.368 M90.417,43.002H11.326
		c-0.954,0-1.732,0.777-1.732,1.731c0,0.955,0.778,1.731,1.732,1.731h79.091c0.955,0,1.729-0.777,1.729-1.731
		C92.146,43.779,91.372,43.002,90.417,43.002 M89.509,33.558c0.955,0,1.726-0.772,1.726-1.73c0-0.953-0.771-1.73-1.726-1.73H10.416
		c-0.956,0-1.732,0.777-1.732,1.73c0,0.958,0.776,1.73,1.732,1.73H89.509z M32.777,52.916H67.21
		c0.932-1.063,1.645-2.225,2.123-3.461H30.661C31.137,50.691,31.847,51.854,32.777,52.916 M12.377,27.103h79.094
		c0.953,0,1.729-0.772,1.729-1.729c0-0.953-0.775-1.73-1.729-1.73H12.377c-0.953,0-1.729,0.777-1.729,1.73
		C10.648,26.331,11.424,27.103,12.377,27.103"/>
	<path display="inline" fill="#AAAAAA" d="M91.176,49.404h-18.72c-2.118,7.472-11.368,13.104-22.465,13.104
		c-11.089,0-20.34-5.632-22.462-13.104H8.81c-3.094,0-5.599,2.506-5.599,5.593v13.142c0,3.084,2.505,5.592,5.599,5.592h82.366
		c3.098,0,5.6-2.508,5.6-5.592V54.997C96.775,51.91,94.273,49.404,91.176,49.404"/>
</g>
<g id="Free_Courses" display="none">
	<path display="inline" fill="#AAAAAA" d="M12.748,87.352c-0.024,0.208-0.085,0.415-0.085,0.627c0,4.044,4.455,7.351,9.911,7.351
		h51.437c5.449,0,9.906-3.307,9.906-7.351c0-0.212-0.062-0.419-0.087-0.627H12.748z M77.035,45.493c-0.086,0-0.17,0.01-0.252,0.01
		v-4.919c0-0.224-0.259-0.652-0.676-0.652H18.658c-0.325,0-0.622,0.323-0.622,0.652v28.548c0,7.638,6.248,13.885,13.885,13.885
		h30.974c7.641,0,13.888-6.247,13.888-13.885v-0.096c0.082,0.005,0.166,0.017,0.252,0.017c6.503,0,11.773-5.272,11.773-11.779
		C88.809,50.764,83.538,45.493,77.035,45.493 M31.921,78.114c-5.187,0-9.399-4.215-9.403-9.396l0.004-22.324
		c0-0.972,0.79-1.769,1.77-1.769c0.978,0,1.77,0.796,1.77,1.769v22.324c0.008,3.211,2.637,5.843,5.859,5.846v0.007
		c0.979,0,1.771,0.792,1.771,1.77C33.693,77.315,32.9,78.114,31.921,78.114 M77.035,63.351c-0.089,0-0.17-0.021-0.252-0.022V51.217
		c0.082,0,0.163-0.025,0.252-0.025c3.354,0,6.072,2.727,6.072,6.082C83.107,60.632,80.39,63.351,77.035,63.351"/>
	<path display="inline" fill="#AAAAAA" d="M39.495,27.047c0,0-3.394-8.623,0.739-12.599c4.816-4.63,5.18-11.534,5.18-11.534
		s1.825,10.919-1.286,14.501C40.932,21.084,40.226,23.382,39.495,27.047"/>
	<path display="inline" fill="#AAAAAA" d="M47.854,36.311c0,0-4.408-11.203,0.963-16.37c6.257-6.015,6.733-14.993,6.733-14.993
		s3.046,13.605-1.05,18.58C50.481,28.405,48.807,31.545,47.854,36.311"/>
</g>
<g id="Report" display="none">
	<rect x="29.5" y="27.75" display="inline" fill="#ABABAB" width="8" height="48.25"/>
	<rect x="41.5" y="35.75" display="inline" fill="#ABABAB" width="8" height="40.25"/>
	<rect x="53.5" y="49" display="inline" fill="#ABABAB" width="8" height="27"/>
	<rect x="65.5" y="64" display="inline" fill="#ABABAB" width="8" height="12"/>
	<rect x="16.25" y="79.5" display="inline" fill="#ABABAB" width="67" height="5"/>
	<rect x="16.188" y="16.75" display="inline" fill="#ABABAB" width="5" height="67"/>
	<polygon display="inline" fill="#ABABAB" points="18.813,8.75 12.813,17.75 24.563,17.75 	"/>
	<polygon display="inline" fill="#ABABAB" points="91.75,82.125 82.75,76.125 82.75,87.875 	"/>
</g>
<g id="Shop" display="none">
	<path display="inline" fill="#AAAAAA" d="M96.471,12.26H83.444c-0.847,0-1.53,0.715-1.53,1.594v3.363
		c0,0.881,0.684,1.596,1.53,1.596h13.026c0.844,0,1.529-0.715,1.529-1.596v-3.363C98,12.975,97.314,12.26,96.471,12.26
		 M65.427,30.761H9.607l10.581,27.321h34.658L65.427,30.761z M22.76,54.074c-0.101,0.042-0.209,0.063-0.317,0.063
		c-0.349,0-0.659-0.219-0.79-0.557l-7.87-20.316h42.855c0.469,0,0.849,0.397,0.849,0.886c0,0.488-0.38,0.886-0.849,0.886H16.306
		l6.926,17.882C23.408,53.372,23.196,53.889,22.76,54.074 M79.269,13.896l-3.092,0.323l-18.24,47.939H20.7v3.68h39.625
		l18.332-48.182l0.683-0.07c-0.028-0.122-0.07-0.238-0.07-0.369V13.896z M49.736,68.58c-3.393,0-6.145,2.868-6.145,6.406
		c0,3.54,2.752,6.406,6.145,6.406s6.146-2.866,6.146-6.406C55.882,71.448,53.129,68.58,49.736,68.58 M49.736,77.714
		c-1.441,0-2.617-1.225-2.617-2.728c0-1.505,1.175-2.728,2.617-2.728c1.443,0,2.617,1.223,2.617,2.728
		C52.354,76.489,51.18,77.714,49.736,77.714 M30.261,68.58c-3.393,0-6.146,2.868-6.146,6.406c0,3.54,2.752,6.406,6.146,6.406
		c3.392,0,6.145-2.866,6.145-6.406C36.406,71.448,33.653,68.58,30.261,68.58 M30.261,77.714c-1.443,0-2.618-1.225-2.618-2.728
		c0-1.505,1.175-2.728,2.618-2.728s2.615,1.223,2.615,2.728C32.876,76.489,31.704,77.714,30.261,77.714"/>
	<path display="inline" fill="#AAAAAA" d="M96.471,12.26H83.444c-0.847,0-1.53,0.715-1.53,1.594v3.363
		c0,0.881,0.684,1.596,1.53,1.596h13.026c0.844,0,1.529-0.715,1.529-1.596v-3.363C98,12.975,97.314,12.26,96.471,12.26z
		 M65.427,30.761H9.607l10.581,27.321h34.658L65.427,30.761z M22.76,54.074c-0.101,0.042-0.209,0.063-0.317,0.063
		c-0.349,0-0.659-0.219-0.79-0.557l-7.87-20.316h42.855c0.469,0,0.849,0.397,0.849,0.886c0,0.488-0.38,0.886-0.849,0.886H16.306
		l6.926,17.882C23.408,53.372,23.196,53.889,22.76,54.074z M79.269,13.896l-3.092,0.323l-18.24,47.939H20.7v3.68h39.625
		l18.332-48.182l0.683-0.07c-0.028-0.122-0.07-0.238-0.07-0.369V13.896z M49.736,68.58c-3.393,0-6.145,2.868-6.145,6.406
		c0,3.54,2.752,6.406,6.145,6.406s6.146-2.866,6.146-6.406C55.882,71.448,53.129,68.58,49.736,68.58z M49.736,77.714
		c-1.441,0-2.617-1.225-2.617-2.728c0-1.505,1.175-2.728,2.617-2.728c1.443,0,2.617,1.223,2.617,2.728
		C52.354,76.489,51.18,77.714,49.736,77.714z M30.261,68.58c-3.393,0-6.146,2.868-6.146,6.406c0,3.54,2.752,6.406,6.146,6.406
		c3.392,0,6.145-2.866,6.145-6.406C36.406,71.448,33.653,68.58,30.261,68.58z M30.261,77.714c-1.443,0-2.618-1.225-2.618-2.728
		c0-1.505,1.175-2.728,2.618-2.728s2.615,1.223,2.615,2.728C32.876,76.489,31.704,77.714,30.261,77.714z"/>
</g>
<g id="chat_now" display="none">
	<path id="XMLID_1_" display="inline" d="M38.216,43.514c0,8.816-6.208,16.172-14.459,17.873c-0.328,0.067,4.862,2.336,6.052,8.442
		c1.723,8.839,7.458,18.818-9.641,18.818c-17.265,0-13.667-8.882-10.093-19.426c2.108-6.224,7.407-7.653,7.12-7.7
		C8.58,60.118,2,52.59,2,43.514C2,33.438,10.107,25.27,20.108,25.27S38.216,33.438,38.216,43.514z"/>
	<path display="inline" d="M72.6,76.784c-3.109,5.886-9.865,8.414-15.084,5.655L39.88,73.115c-5.221-2.76-6.929-9.769-3.818-15.649
		L59.909,12.36c3.111-5.884,9.862-8.417,15.086-5.657l17.636,9.326c5.214,2.759,6.928,9.766,3.816,15.652L72.6,76.784z
		 M57.131,71.636c1.056-2.345,0.011-5.101-2.333-6.156l-3.332-1.499c-2.345-1.055-5.101-0.009-6.155,2.335l0,0
		c-1.056,2.345-0.011,5.101,2.333,6.156l3.331,1.499C53.321,75.025,56.078,73.98,57.131,71.636L57.131,71.636z M92.012,29.92
		c2.265-4.281,0.813-9.483-3.234-11.622l-13.677-7.232c-4.052-2.142-9.163-0.408-11.424,3.87L46.337,47.733
		c-2.264,4.276-0.816,9.479,3.233,11.619l13.678,7.231c4.047,2.141,9.162,0.41,11.425-3.869L92.012,29.92z"/>
</g>
<g id="chat_now_2" display="none">
	<path id="XMLID_2_" display="inline" d="M31.163,62.676c0,7.096-4.996,13.016-11.638,14.383c-0.264,0.055,3.914,1.881,4.872,6.797
		C25.784,90.969,30.398,99,16.637,99c-13.895,0-11-7.148-8.124-15.635c1.697-5.008,5.962-6.16,5.731-6.197
		C7.31,76.039,2.015,69.98,2.015,62.676c0-8.111,6.525-14.684,14.574-14.684S31.163,54.564,31.163,62.676z"/>
	<path display="inline" d="M43.413,95.559c-2.318,1.879-5.55,1.732-7.215-0.324l-5.627-6.949c-1.666-2.057-1.136-5.246,1.182-7.123
		l17.774-14.396c2.318-1.877,5.548-1.732,7.215,0.324l5.628,6.951c1.664,2.055,1.137,5.246-1.183,7.125L43.413,95.559z M58.202,78.3
		c1.178-0.953,1.311-2.735,0.303-3.98l-3.408-4.208c-1.008-1.247-2.777-1.482-3.954-0.53l-9.011,7.301
		c-1.176,0.95-1.312,2.732-0.303,3.976l3.408,4.208c1.008,1.245,2.778,1.483,3.955,0.531L58.202,78.3z M37.073,89.45
		c0.447-0.393,0.577-0.976,0.29-1.303l-0.407-0.462c-0.287-0.325-0.882-0.27-1.329,0.124l0,0c-0.447,0.396-0.577,0.978-0.291,1.303
		l0.408,0.464C36.032,89.9,36.627,89.845,37.073,89.45L37.073,89.45z M35.296,87.015c0.446-0.393,0.577-0.977,0.29-1.303
		l-0.408-0.462c-0.287-0.325-0.882-0.27-1.329,0.124l0,0c-0.447,0.395-0.577,0.979-0.291,1.304l0.409,0.463
		C34.254,87.466,34.85,87.409,35.296,87.015L35.296,87.015z M38.983,91.763c0.447-0.394,0.577-0.978,0.29-1.303l-0.408-0.463
		c-0.287-0.325-0.882-0.269-1.329,0.124l0,0c-0.447,0.396-0.577,0.978-0.29,1.303l0.408,0.463
		C37.942,92.212,38.537,92.157,38.983,91.763L38.983,91.763z M40.016,86.955c0.447-0.393,0.577-0.976,0.29-1.303l-0.407-0.462
		c-0.287-0.325-0.882-0.27-1.329,0.124l0,0c-0.447,0.396-0.577,0.978-0.291,1.303l0.408,0.464
		C38.975,87.405,39.57,87.35,40.016,86.955L40.016,86.955z M38.239,84.52c0.446-0.393,0.577-0.977,0.29-1.303l-0.408-0.462
		c-0.287-0.325-0.882-0.27-1.329,0.124l0,0c-0.447,0.395-0.577,0.979-0.291,1.304l0.409,0.463
		C37.197,84.971,37.793,84.914,38.239,84.52L38.239,84.52z M41.926,89.268c0.447-0.394,0.577-0.978,0.29-1.303l-0.408-0.463
		c-0.287-0.325-0.882-0.269-1.329,0.124l0,0c-0.447,0.396-0.577,0.978-0.29,1.303l0.408,0.463
		C40.885,89.717,41.479,89.662,41.926,89.268L41.926,89.268z"/>
	<path display="inline" d="M87.771,5.765c14.546,7.678,13.01,21.915-3.43,31.8c-5.317,3.195-11.535,5.545-18.012,7
		c-2.217,0.5-8.324,15.063-12.504,15.058c-2.267-0.003,1.294-13.407-0.939-13.333c-9.197,0.304-18.021-1.229-24.648-4.728
		C13.694,33.886,15.23,19.649,31.67,9.763C48.11-0.122,73.228-1.913,87.771,5.765z M33.898,10.939
		c-15.049,9.05-16.456,22.082-3.142,29.11c6.067,3.204,14.144,4.051,22.562,4.329C57,44.5,52.869,57.436,54.928,57.176
		c2.059-0.265,8.669-13.919,10.698-14.377c5.927-1.333,11.621-3.484,16.488-6.409c15.048-9.048,16.453-22.082,3.142-29.111
		C71.939,0.251,48.945,1.89,33.898,10.939z"/>
</g>
<g id="Text_Asset" display="none">
	<path display="inline" fill="#B8BABC" d="M26.334,20.505h8.226l21.856,55.934H48.19l-6.11-16.843H18.422l-6.267,16.843H4.478
		L26.334,20.505z M20.772,53.328H39.73l-9.322-26.086h-0.157L20.772,53.328z"/>
	<path display="inline" fill="#B8BABC" d="M96.681,76.282c-1.175,0.705-2.663,1.097-4.778,1.097c-3.447,0-5.641-1.881-5.641-6.268
		c-3.682,4.309-8.617,6.268-14.258,6.268c-7.363,0-13.396-3.291-13.396-11.359c0-9.166,6.815-11.124,13.709-12.456
		c7.364-1.41,13.631-0.939,13.631-5.954c0-5.797-4.778-6.737-9.009-6.737c-5.641,0-9.792,1.724-10.105,7.677h-6.659
		c0.392-10.027,8.147-13.552,17.156-13.552c7.286,0,15.198,1.645,15.198,11.124V66.96c0,3.133,0,4.543,2.115,4.543
		c0.548,0,1.175-0.078,2.036-0.392V76.282z M85.87,55.522c-2.585,1.88-7.599,1.958-12.064,2.741
		c-4.387,0.783-8.146,2.351-8.146,7.286c0,4.387,3.76,5.953,7.833,5.953c8.774,0,12.378-5.483,12.378-9.165V55.522z"/>
</g>
<g id="Visual_Asset" display="none">
	<path display="inline" fill="#B8BABC" d="M71.384,54.491c0,6.271-5.093,11.369-11.368,11.369c-6.271,0-11.369-5.099-11.369-11.369
		c0-6.27,5.098-11.374,11.369-11.374C66.291,43.117,71.384,48.221,71.384,54.491z M47.304,23.387c0-1.356-1.109-2.468-2.465-2.468
		H25.207c-1.356,0-2.468,1.111-2.468,2.468v5.787h24.565V23.387z M93.509,34.069v40.083c0,2.707-2.223,4.93-4.927,4.93H17.376
		c-2.705,0-4.933-2.223-4.933-4.93V34.069c0-2.718,2.228-4.935,4.933-4.935h71.206C91.286,29.134,93.509,31.351,93.509,34.069z
		 M29.221,39.408c0-2.969-2.402-5.388-5.382-5.388c-2.977,0-5.388,2.418-5.388,5.388c0,2.979,2.411,5.393,5.388,5.393
		C26.819,44.8,29.221,42.387,29.221,39.408z M78.787,54.491c0-10.35-8.419-18.771-18.771-18.771
		c-10.35,0-18.769,8.421-18.769,18.771c0,10.345,8.419,18.767,18.769,18.767C70.368,73.258,78.787,64.836,78.787,54.491z"/>
</g>
<g id="Audio_Asset" display="none">
	<path display="inline" fill="#B8BABC" d="M18.575,57.888c-3.973-3.595-4.276-9.718-0.681-13.688
		c3.595-3.963,9.722-4.27,13.69-0.669c3.964,3.589,4.271,9.718,0.675,13.688C28.664,61.183,22.536,61.483,18.575,57.888z
		 M41.987,73.981c-2.402-2.178-2.583-5.896-0.402-8.3c4.151-4.578,6.019-10.358,5.757-16.064c-0.294-5.73-2.727-11.271-7.307-15.424
		c-2.411-2.19-2.598-5.896-0.402-8.325c1.749-1.92,4.467-2.399,6.728-1.405c-0.03-0.024-0.062-0.037-0.092-0.061
		c0.129,0.055,0.249,0.129,0.368,0.196c-0.088-0.049-0.183-0.092-0.275-0.135c0.592,0.38,1.172,0.774,1.745,1.16
		c-0.058-0.049-0.106-0.11-0.162-0.16c0.061,0.062,0.125,0.129,0.193,0.185c-0.016-0.006-0.021-0.013-0.031-0.025
		c6.857,6.295,10.577,14.792,10.989,23.412c0.423,8.688-2.47,17.585-8.782,24.554C48.135,75.989,44.402,76.166,41.987,73.981z
		 M60.598,89.939c-2.397-2.184-2.594-5.914-0.417-8.319c8.565-9.454,12.471-21.432,11.897-33.235
		c-0.59-11.792-5.657-23.327-15.096-31.897C54.57,14.31,54.39,10.591,56.57,8.18c2.18-2.405,5.896-2.595,8.311-0.405
		c11.832,10.718,18.228,25.258,18.955,40.027c0.738,14.78-4.199,29.891-14.927,41.727C66.73,91.934,63.013,92.118,60.598,89.939z"/>
</g>
<g id="Video_Asset" display="none">
	<path display="inline" fill="#C4C3C3" d="M97,72.095H2.166V25.507H97V72.095z M11.757,29.618h-5.48v5.481h5.48V29.618z
		 M11.757,37.839h-5.48v5.48h5.48V37.839z M11.757,46.061h-5.48v5.48h5.48V46.061z M11.757,54.282h-5.48v5.481h5.48V54.282z
		 M11.757,62.504h-5.48v5.479h5.48V62.504z M92.889,29.618h-5.48v5.481h5.48V29.618z M92.889,37.839h-5.48v5.48h5.48V37.839z
		 M92.889,46.061h-5.48v5.48h5.48V46.061z M92.889,54.282h-5.48v5.481h5.48V54.282z M92.889,62.504h-5.48v5.479h5.48V62.504z"/>
</g>
<g id="Closed_Captioning_Asset" display="none">
	<path display="inline" fill="#B8BABC" d="M96.12,67c0,2.762-2.238,5-5,5H8c-2.761,0-5-2.238-5-5V28c0-2.761,2.239-5,5-5h83.12
		c2.762,0,5,2.239,5,5V67z M48.755,42.099c-0.268-1.556-0.786-2.971-1.557-4.244c-0.77-1.273-1.721-2.358-2.853-3.254
		s-2.413-1.587-3.844-2.075c-1.43-0.487-2.947-0.731-4.55-0.731c-2.217,0-4.225,0.377-6.025,1.132
		c-1.8,0.754-3.333,1.827-4.598,3.218c-1.266,1.391-2.244,3.077-2.936,5.058c-0.692,1.981-1.038,4.197-1.038,6.649
		s0.342,4.668,1.026,6.649c0.684,1.98,1.654,3.671,2.912,5.069c1.258,1.399,2.786,2.477,4.586,3.23
		c1.8,0.755,3.823,1.132,6.072,1.132c1.713,0,3.305-0.235,4.775-0.707c1.47-0.472,2.767-1.167,3.891-2.087
		c1.123-0.92,2.051-2.052,2.782-3.396c0.73-1.344,1.206-2.889,1.426-4.633H42.86c-0.314,1.839-1.085,3.242-2.311,4.209
		c-1.227,0.967-2.775,1.45-4.646,1.45c-1.305,0-2.488-0.24-3.549-0.72s-1.969-1.187-2.723-2.122
		c-0.754-0.935-1.336-2.078-1.745-3.431c-0.409-1.352-0.613-2.9-0.613-4.645c0-1.76,0.204-3.313,0.613-4.657
		c0.409-1.344,0.991-2.472,1.745-3.384c0.754-0.911,1.666-1.603,2.735-2.075s2.271-0.708,3.608-0.708
		c0.864,0,1.682,0.114,2.452,0.342c0.77,0.228,1.454,0.558,2.051,0.99c0.598,0.433,1.101,0.963,1.509,1.592
		c0.409,0.629,0.692,1.344,0.85,2.146H48.755z M80.94,42.099c-0.268-1.556-0.786-2.971-1.557-4.244
		c-0.77-1.273-1.721-2.358-2.853-3.254s-2.413-1.587-3.844-2.075s-2.947-0.731-4.551-0.731c-2.216,0-4.225,0.377-6.024,1.132
		c-1.8,0.754-3.333,1.827-4.598,3.218c-1.266,1.391-2.244,3.077-2.936,5.058c-0.692,1.981-1.037,4.197-1.037,6.649
		s0.342,4.668,1.025,6.649s1.654,3.671,2.912,5.069c1.257,1.399,2.786,2.477,4.586,3.23c1.8,0.755,3.823,1.132,6.071,1.132
		c1.714,0,3.305-0.235,4.775-0.707c1.47-0.472,2.767-1.167,3.891-2.087c1.123-0.92,2.051-2.052,2.782-3.396
		c0.73-1.344,1.206-2.889,1.426-4.633h-5.965c-0.314,1.839-1.085,3.242-2.311,4.209c-1.227,0.967-2.775,1.45-4.646,1.45
		c-1.305,0-2.487-0.24-3.549-0.72c-1.061-0.479-1.969-1.187-2.724-2.122c-0.754-0.935-1.336-2.078-1.744-3.431
		c-0.409-1.352-0.613-2.9-0.613-4.645c0-1.76,0.204-3.313,0.613-4.657c0.408-1.344,0.99-2.472,1.744-3.384
		c0.755-0.911,1.666-1.603,2.735-2.075s2.271-0.708,3.607-0.708c0.865,0,1.683,0.114,2.453,0.342c0.77,0.228,1.453,0.558,2.051,0.99
		c0.598,0.433,1.101,0.963,1.509,1.592c0.409,0.629,0.692,1.344,0.85,2.146H80.94z"/>
</g>
<g id="return-arrow" display="none">
	<polygon display="inline" fill="#010101" points="84.588,52.816 58.91,30.732 58.91,46.891 34.016,46.891 34.016,24.765 
		22.163,24.765 22.163,58.743 58.91,58.743 58.91,74.899 	"/>
</g>
<g id="Layer_15" display="none">
	<path display="inline" fill-rule="evenodd" clip-rule="evenodd" fill="#010101" d="M72.907,68.24l4.463,9.114H9.87
		c-4.331,0-5.173-5.624-5.173-7.372s1.868-1.742,1.868-1.742H72.907z M9.956,72.718c0,1.216,0.986,2.2,2.202,2.2
		s2.201-0.984,2.201-2.2c0-1.215-0.986-2.201-2.201-2.201S9.956,71.503,9.956,72.718z"/>
	<path display="inline" fill-rule="evenodd" clip-rule="evenodd" fill="#010101" d="M92.403,81.763
		c-2.448,1.167-5.387,0.127-6.553-2.326L75.288,57.253c-0.75-1.569-0.591-3.334,0.262-4.709c-3.646,1.126-7.545,1.051-11.213-0.253
		c-4.507-1.598-8.115-4.852-10.166-9.157c-2.052-4.306-2.304-9.157-0.707-13.661c1.598-4.506,4.852-8.119,9.161-10.171
		c8.899-4.236,19.589-0.443,23.829,8.457c3.846,8.082,1.073,17.637-6.129,22.501c1.609,0.198,3.085,1.188,3.837,2.764L94.73,75.213
		C95.896,77.664,94.856,80.598,92.403,81.763z M82.057,39.614c1.114-3.14,0.939-6.522-0.491-9.524
		c-2.952-6.207-10.408-8.854-16.616-5.903c-6.208,2.96-8.853,10.414-5.896,16.616c2.953,6.208,10.407,8.855,16.616,5.901
		C78.674,45.274,80.941,42.756,82.057,39.614z"/>
	
		<rect x="16.042" y="40.284" display="inline" fill-rule="evenodd" clip-rule="evenodd" fill="#010101" width="31.753" height="0.777"/>
	<polygon display="inline" fill-rule="evenodd" clip-rule="evenodd" fill="#010101" points="47.795,31.739 16.042,31.739 
		16.042,34.847 47.019,34.847 	"/>
	
		<rect x="16.042" y="43.392" display="inline" fill-rule="evenodd" clip-rule="evenodd" fill="#010101" width="32.725" height="0.777"/>
	
		<rect x="16.042" y="37.177" display="inline" fill-rule="evenodd" clip-rule="evenodd" fill="#010101" width="30.977" height="0.777"/>
	
		<rect x="16.042" y="49.607" display="inline" fill-rule="evenodd" clip-rule="evenodd" fill="#010101" width="35.929" height="0.776"/>
	
		<rect x="16.042" y="46.499" display="inline" fill-rule="evenodd" clip-rule="evenodd" fill="#010101" width="33.944" height="0.777"/>
	<path display="inline" fill-rule="evenodd" clip-rule="evenodd" fill="#010101" d="M12.203,61.167V27.651
		c0-1.255,1.626-2.182,2.435-2.182h34.823c0.285-1.16,2.185-3.814,3.381-4.68H13.886c-3.107,0-5.649,2.542-5.649,5.649v38.652
		c0,0.005,42.644,0,63.823-0.002c-1.003-1.837-1.301-2.557-1.82-3.923C51.722,61.167,12.203,61.173,12.203,61.167z"/>
	
		<rect x="16.042" y="52.714" display="inline" fill-rule="evenodd" clip-rule="evenodd" fill="#010101" width="38.842" height="0.777"/>
</g>
<g id="Layer_16" display="none">
	<path display="inline" d="M81.384,44.125c-0.014,1.44-0.513,10.84-0.759,14.688c-0.479,0.006-1,0.063-1.5-0.125
		c0.374-3.499,0.635-10.535,0.474-12.75c-0.158-1.128-0.563-1.75-2.609-1.739c-20.229,0.106-40.952,3.19-60.078,4.177
		c-0.661,8.188-0.911,9.5-1.875,19c20.125-1.188,39.558-1.99,59.87-4.365c0.634-0.101,1.137-0.106,2.094-0.405
		c0.899,0.227,1.583,0.25,2.656,0.636c-0.744,0.807-2.27,1.612-3.776,1.976c-0.773,0.179-4.743,0.555-10.337,1.024
		c-1.407,0.071-2.934,0.197-3.811,0.314c-18.582,1.51-48.696,3.653-48.696,3.653L7.617,53.826l0.091-0.582l1.25-0.5l0.592-14.72
		l-0.675-1.493l0.406-0.25l5.731-0.369l6.363,10.213l57.845-3.938C79.22,42.188,81.396,42.875,81.384,44.125z M77.456,62.104
		 M87.723,21.875c-0.017,1.729-0.831,13.858-0.93,15.584c-0.23,4.042-1.605,4.792-4.574,5.507c-3.25,0.75-62.844,4.992-62.844,4.992
		l-5.667-15.646l0.338-0.49l1.203,0.115l0.639-16.163l-0.764-1.232l0.188-0.188L64.5,11.583l21.059,8.354
		C85.559,19.938,87.734,20.625,87.723,21.875z M85.938,23.688c-0.158-1.128-0.563-1.75-2.609-1.739
		c-20.229,0.106-40.952,3.19-60.078,4.177c-0.606,8.308-0.875,9.625-1.875,19c20.125-1.188,39.558-1.99,59.87-4.365
		c1.09-0.173,3.418-0.667,3.922-2.843C85.667,36,86.138,26.438,85.938,23.688z M58.371,81.247
		c-1.688,7.174-6.993,10.875-14.875,10.875c-13.255,0-24-4.914-24-12.75s7.083-19.084,19.583-21.625
		c5.125-1.041,11.436,0.448,16.537,2.705c0.151,0.067,3.859-6.022,12.8-3.142c34.917,11.25,16.047-13.321,15.813-15.357
		c-0.11-0.96,1.441-0.984,1.455-0.96c1.703,3.061,19.149,30.067-17.434,18.108c-8.785-2.872-11.001,2.117-10.727,2.258
		c4.137,2.113,7.122,4.638,7.371,6.406C65.871,74.701,60.03,74.196,58.371,81.247z M51.982,62.824
		c0.534-0.39,0.639-1.494-0.236-2.077c-2.552-1.572-4.284-1-5.563-0.125C42.25,64.497,49.732,63.949,51.982,62.824z M57.333,79.561
		c0.909-3.354,3.432-5.48,6.25-8.083c0.959-1.251,0.334-3.959-0.875-4.709c-1.625-0.958-4.476,1.876-6.333,5.375
		c-2.813,5.75-4.459,8.084-8.792,9.334c-13.75,2.188-28.087-2.105-25.167-9.75c-3.333,7-2.5,11.667,5.25,16
		c6,2.833,17.459,4.791,24.396,0.479C54.659,85.971,56.249,83.561,57.333,79.561z"/>
</g>
<g id="Layer_17" display="none">
	
		<line display="inline" fill="none" stroke="#000000" stroke-width="4" stroke-miterlimit="10" x1="50" y1="62.75" x2="50" y2="100"/>
	
		<line display="inline" fill="none" stroke="#000000" stroke-width="4" stroke-miterlimit="10" x1="50" y1="0" x2="50" y2="37.167"/>
	<path display="inline" d="M50,36c-7.663,0-13.875,6.212-13.875,13.875S42.337,63.75,50,63.75s13.875-6.212,13.875-13.875
		S57.663,36,50,36z M48.373,58.158c-1.167-0.779-5.823-4.082-8.661-6.004c0.546-0.813,2.154-2.937,2.587-3.452
		c4.651,2.96,5.516,3.512,5.516,3.512c0.53-0.628,5.042-5.977,8.011-10.101c1.265,0.709,2.355,1.522,3.673,2.381
		C58.753,45.472,49.292,57.239,48.373,58.158z"/>
</g>
<g id="Layer_17_copy">
	<g>
		<path fill="#287EC2" d="M50,3.281c-25.733,0-46.594,20.86-46.594,46.594S24.267,96.469,50,96.469s46.594-20.86,46.594-46.594
			S75.733,3.281,50,3.281z M83.32,71.574H56.76l7.03,10.613l-3.472,2.525l-7.884-13.139h-0.187v15.19h-2.763v-15.19h-0.187
			l-8.987,13.139l-3.473-2.525l8.135-10.613h-26.56c-0.763,0-1.381-0.619-1.381-1.382v-4.833c0-0.763,0.618-1.381,1.381-1.381h0.69
			V25.311c0-0.763,0.618-1.381,1.381-1.381h22.786v-3.453c0-0.762,0.618-1.38,1.381-1.38h12.429c0.763,0,1.381,0.618,1.381,1.38
			v3.453h22.786c0.763,0,1.381,0.618,1.381,1.381v38.667h0.691c0.763,0,1.381,0.618,1.381,1.381v4.833
			C84.701,70.955,84.083,71.574,83.32,71.574z"/>
		<path fill="#287EC2" d="M66.813,34.813l3.744,1.182l-9.591,11.406l-6.521-3.381c-0.016-0.009-0.031-0.008-0.037-0.014
			c-0.054-0.023-0.104-0.036-0.166-0.045c-0.044-0.011-0.094-0.023-0.138-0.025c-0.051-0.002-0.104,0.009-0.157,0.019
			c-0.047,0.006-0.101,0.013-0.153,0.033c-0.041,0.016-0.085,0.042-0.119,0.067c-0.05,0.028-0.101,0.056-0.141,0.097
			c-0.016,0.013-0.031,0.016-0.035,0.028l-8.249,8.687l-5.567-5.75c-0.009-0.006-0.019-0.009-0.028-0.016
			c-0.008-0.009-0.011-0.019-0.019-0.025c-0.032-0.028-0.072-0.041-0.107-0.063c-0.047-0.031-0.091-0.063-0.143-0.082
			c-0.048-0.019-0.095-0.022-0.146-0.031c-0.05-0.006-0.1-0.021-0.152-0.021c-0.053,0.001-0.105,0.017-0.155,0.026
			c-0.05,0.013-0.096,0.018-0.141,0.038c-0.05,0.022-0.092,0.057-0.138,0.088c-0.038,0.022-0.077,0.036-0.11,0.066
			c-0.006,0.009-0.009,0.019-0.016,0.028c-0.009,0.008-0.019,0.011-0.025,0.019L27.273,59.843c-0.295,0.332-0.265,0.837,0.067,1.135
			c0.156,0.131,0.343,0.2,0.533,0.2c0.222,0,0.443-0.094,0.602-0.272l10.655-12.05l5.546,5.728c0.006,0.007,0.01,0.007,0.016,0.01
			c0.003,0.006,0.006,0.013,0.01,0.016c0.05,0.047,0.109,0.076,0.165,0.104c0.03,0.019,0.056,0.042,0.089,0.057
			c0.096,0.037,0.198,0.059,0.299,0.059c0.102,0,0.206-0.021,0.303-0.061c0.033-0.013,0.06-0.039,0.091-0.058
			c0.056-0.035,0.116-0.06,0.166-0.107c0.003-0.003,0.003-0.009,0.009-0.016c0.003-0.003,0.009-0.003,0.013-0.009l8.407-8.854
			l6.553,3.398c0.012,0.008,0.031,0.007,0.04,0.012c0.104,0.049,0.217,0.08,0.329,0.08c0.129,0,0.254-0.041,0.37-0.104
			c0.031-0.02,0.063-0.051,0.1-0.076c0.048-0.034,0.101-0.059,0.142-0.106l9.997-11.887l1.663,2.897
			c0.289-0.338,1.271-6.687,0.934-6.972C74.032,32.682,67.102,34.474,66.813,34.813z"/>
	</g>
</g>
</svg>
